<svg width="720" height="245" viewBox="0 0 720 245" fill="none" xmlns="http://www.w3.org/2000/svg">
<rect y="4" width="720" height="241" fill="#FF0000"/>
<path d="M674.862 195.373L637.28 179.859L674.898 162.497L712.502 178.349L674.862 195.373Z" stroke="white" stroke-width="2"/>
<path d="M634 226.979V184.552L671.812 199.789V243.345L634 226.979Z" stroke="white" stroke-width="2"/>
<path d="M714 226.991V184.578L677.971 199.778V243.317L714 226.991Z" stroke="white" stroke-width="2"/>
<path d="M502.862 195.373L465.28 179.859L502.898 162.497L540.502 178.349L502.862 195.373Z" stroke="white" stroke-width="2"/>
<path d="M462 226.979V184.552L499.812 199.789V243.345L462 226.979Z" stroke="white" stroke-width="2"/>
<path d="M542 226.991V184.578L505.971 199.778V243.317L542 226.991Z" stroke="white" stroke-width="2"/>
<path d="M632.862 126.373L595.28 110.859L632.898 93.4973L670.502 109.349L632.862 126.373Z" stroke="white" stroke-width="2"/>
<path d="M592 157.979V115.552L629.812 130.789V174.345L592 157.979Z" stroke="white" stroke-width="2"/>
<path d="M672 157.991V115.578L635.971 130.778V174.317L672 157.991Z" stroke="white" stroke-width="2"/>
<path d="M675.862 56.373L638.28 40.859L675.898 23.4973L713.502 39.3494L675.862 56.373Z" stroke="white" stroke-width="2"/>
<path d="M635 87.9792V45.5519L672.812 60.7894V104.345L635 87.9792Z" stroke="white" stroke-width="2"/>
<path d="M715 87.9913V45.578L678.971 60.7777V104.317L715 87.9913Z" stroke="white" stroke-width="2"/>
<path d="M589.862 56.373L552.28 40.859L589.898 23.4973L627.502 39.3494L589.862 56.373Z" stroke="white" stroke-width="2"/>
<path d="M549 87.9792V45.5519L586.812 60.7894V104.345L549 87.9792Z" stroke="white" stroke-width="2"/>
<path d="M629 87.9913V45.578L592.971 60.7777V104.317L629 87.9913Z" stroke="white" stroke-width="2"/>
<path d="M588.862 195.373L551.28 179.859L588.898 162.497L626.502 178.349L588.862 195.373Z" stroke="white" stroke-width="2"/>
<path d="M548 226.979V184.552L585.812 199.789V243.345L548 226.979Z" stroke="white" stroke-width="2"/>
<path d="M628 226.991V184.578L591.971 199.778V243.317L628 226.991Z" stroke="white" stroke-width="2"/>
<path d="M546.862 126.373L509.28 110.859L546.898 93.4973L584.502 109.349L546.862 126.373Z" stroke="white" stroke-width="2"/>
<path d="M506 157.979V115.552L543.812 130.789V174.345L506 157.979Z" stroke="white" stroke-width="2"/>
<path d="M586 157.991V115.578L549.971 130.778V174.317L586 157.991Z" stroke="white" stroke-width="2"/>
</svg>
